# File created by Blade
# Date/Time:  Tue Jan 27 18:12:42 2015
# Frame Rate: 120.000 fps
#------------------------------------------------------
:FULLY-SPECIFIED
:DEGREES
3681
root -1.702567 31.878120 -7.013070 7.949672 -12.123389 1.003530
Spine -2.111511 -26.117669 -4.731614
Head 14.697570 38.557936 18.928695
LeftShoulder -17.649678 17.886112 3.282455
LeftArm 27.400384 37.711390 -67.039637
LeftForeArm -0.594599 -0.000000 17.083683
LeftHand -11.412707 -0.000000 -2.720741
LeftHandThumb1 -26.253704 0.000000 33.147579
RightShoulder -20.746390 -10.336954 -23.478268
RightArm -24.375599 53.196778 52.353104
RightForeArm 40.860749 -0.000000 15.532198
RightHand -23.701654 -0.000000 -29.041202
RightHandThumb1 -24.326973 -0.000000 -32.862282
LeftUpLeg -1.800790 11.323651 -0.543651
LeftLeg -0.223219 -0.000000 0.000000
LeftFoot -21.808600 22.563684 -27.246401
LeftToeBase 8.967240 -0.000000 -0.000000
RightUpLeg -5.146434 6.528514 -2.978424
RightLeg -2.810873 -0.000000 0.000000
RightFoot -10.921216 -5.534845 8.438440
RightToeBase 4.617785 -0.000000 -0.000000
3682
root -1.703327 31.877611 -7.015523 7.973939 -12.118510 1.016738
Spine -2.128695 -26.090228 -4.695281
Head 14.716664 38.670806 18.760583
LeftShoulder -17.679087 17.861657 3.267746
LeftArm 27.521802 37.761392 -66.936576
LeftForeArm -0.510516 -0.000000 17.044547
LeftHand -11.414532 -0.000000 -2.780030
LeftHandThumb1 -26.253704 0.000000 33.147579
RightShoulder -20.732373 -10.363845 -23.316050
RightArm -24.008104 52.594977 53.285411
RightForeArm 40.977244 -0.000000 15.015699
RightHand -23.581464 -0.000000 -29.528066
RightHandThumb1 -24.326973 -0.000000 -32.862282
LeftUpLeg -1.826261 11.322792 -0.558155
LeftLeg -0.236448 -0.000000 0.000000
LeftFoot -21.786132 22.554974 -27.237146
LeftToeBase 8.942146 -0.000000 -0.000000
RightUpLeg -5.140975 6.628917 -3.009860
RightLeg -2.890034 -0.000000 0.000000
RightFoot -10.896241 -5.629479 8.457596
RightToeBase 4.609170 -0.000000 -0.000000
3683
root -1.707185 31.877417 -7.017055 7.995905 -12.111542 1.009830
Spine -2.146604 -26.064152 -4.642281
Head 14.758808 38.797642 18.606026
LeftShoulder -17.692694 17.841861 3.251677
LeftArm 27.583728 37.769972 -66.872073
LeftForeArm -0.413253 -0.000000 17.054233
LeftHand -11.389356 -0.000000 -2.689045
LeftHandThumb1 -26.253704 0.000000 33.147579
RightShoulder -20.713730 -10.388643 -23.120425
RightArm -23.617753 51.794677 54.218552
RightForeArm 41.520832 -0.000000 14.602013
RightHand -23.633182 -0.000000 -29.934934
RightHandThumb1 -24.326973 -0.000000 -32.862282
LeftUpLeg -1.847041 11.352085 -0.543607
LeftLeg -0.238824 -0.000000 0.000000
LeftFoot -21.743848 22.515889 -27.201031
LeftToeBase 8.910508 -0.000000 -0.000000
RightUpLeg -5.077256 6.882982 -3.038175
RightLeg -3.078461 -0.000000 0.000000
RightFoot -10.827850 -5.829927 8.580837
RightToeBase 4.682812 -0.000000 -0.000000
3684
root -1.706569 31.877569 -7.020220 8.034704 -12.124240 1.008613
Spine -2.189167 -26.031697 -4.570922
Head 14.792779 38.939395 18.433899
LeftShoulder -17.719185 17.807764 3.220367
LeftArm 27.649978 37.808901 -66.780057
LeftForeArm -0.407858 0.000000 17.077967
LeftHand -11.435715 -0.000000 -2.732745
LeftHandThumb1 -26.253704 0.000000 33.147579
RightShoulder -20.662159 -10.368403 -22.993635
RightArm -23.457705 51.440662 54.840903
RightForeArm 41.847898 0.000000 14.100768
RightHand -23.989189 -0.000000 -29.922146
RightHandThumb1 -24.326973 -0.000000 -32.862282
LeftUpLeg -1.883834 11.361985 -0.551020
LeftLeg -0.253756 -0.000000 0.000000
LeftFoot -21.715870 22.519696 -27.179424
LeftToeBase 8.872655 -0.000000 -0.000000
RightUpLeg -5.068758 7.091367 -3.076425
RightLeg -3.206686 -0.000000 0.000000
RightFoot -10.762545 -5.958585 8.703230
RightToeBase 4.666052 -0.000000 -0.000000
3685
root -1.704735 31.877056 -7.020409 8.066398 -12.134718 1.022668
Spine -2.242489 -26.000492 -4.508035
Head 14.856684 39.081836 18.285041
LeftShoulder -17.733719 17.786291 3.201859
LeftArm 27.715128 37.848718 -66.724472
LeftForeArm -0.427123 -0.000000 17.063734
LeftHand -11.400417 -0.000000 -2.712816
LeftHandThumb1 -26.253704 0.000000 33.147579
RightShoulder -20.624791 -10.336435 -22.896209
RightArm -23.272619 51.026692 55.449766
RightForeArm 42.333605 -0.000000 13.602279
RightHand -24.120790 0.000000 -29.818494
RightHandThumb1 -24.326973 -0.000000 -32.862282
LeftUpLeg -1.912575 11.372072 -0.581553
LeftLeg -0.274551 -0.000000 0.000000
LeftFoot -21.800304 22.502852 -27.338904
LeftToeBase 9.027506 -0.000000 -0.000000
RightUpLeg -5.092760 7.111076 -3.100969
RightLeg -3.233239 -0.000000 0.000000
RightFoot -10.758715 -5.987104 8.684669
RightToeBase 4.643654 -0.000000 -0.000000
3686
root -1.699953 31.876294 -7.017916 8.076728 -12.156864 1.058613
Spine -2.276030 -25.960893 -4.472128
Head 14.901805 39.198638 18.133362
LeftShoulder -17.743132 17.777280 3.182570
LeftArm 27.754281 37.836890 -66.716584
LeftForeArm -0.398484 0.000000 17.068313
LeftHand -11.332467 0.000000 -2.736212
LeftHandThumb1 -26.253704 0.000000 33.147579
RightShoulder -20.621093 -10.442465 -22.763218
RightArm -22.864944 50.660109 56.198253
RightForeArm 42.645866 -0.000000 13.116838
RightHand -24.323679 -0.000000 -29.659255
RightHandThumb1 -24.326973 -0.000000 -32.862282
LeftUpLeg -1.907890 11.365438 -0.626115
LeftLeg -0.312511 -0.000000 0.000000
LeftFoot -21.723785 22.552726 -27.221952
LeftToeBase 8.938612 -0.000000 -0.000000
RightUpLeg -5.169397 6.871693 -3.110429
RightLeg -3.100942 -0.000000 0.000000
RightFoot -10.820734 -5.793417 8.566918
RightToeBase 4.623385 -0.000000 -0.000000
3687
root -1.704993 31.875021 -7.008760 8.078237 -12.157831 1.062439
Spine -2.331663 -25.940637 -4.415789
Head 15.010687 39.309736 18.037279
LeftShoulder -17.748109 17.790291 3.177392
LeftArm 27.763564 37.841983 -66.715326
LeftForeArm -0.357013 0.000000 17.070827
LeftHand -11.379944 -0.000000 -2.623833
LeftHandThumb1 -26.253704 0.000000 33.147579
RightShoulder -20.606853 -10.562184 -22.661487
RightArm -22.495778 50.311621 56.852905
RightForeArm 42.961218 -0.000000 12.574278
RightHand -24.424222 0.000000 -29.408603
RightHandThumb1 -24.326973 -0.000000 -32.862282
LeftUpLeg -1.871948 11.385644 -0.617403
LeftLeg -0.349678 -0.000000 0.000000
LeftFoot -21.698119 22.516916 -27.222729
LeftToeBase 8.937492 -0.000000 -0.000000
RightUpLeg -5.165450 6.702874 -3.080057
RightLeg -3.072250 -0.000000 0.000000
RightFoot -10.842800 -5.665511 8.457413
RightToeBase 4.632469 -0.000000 -0.000000
3688
root -1.701712 31.874142 -7.003697 8.081483 -12.190124 1.086439
Spine -2.372251 -25.888438 -4.365318
Head 15.062048 39.418771 17.892277
LeftShoulder -17.723446 17.778074 3.182042
LeftArm 27.743261 37.815535 -66.757175
LeftForeArm -0.295228 -0.000000 17.098426
LeftHand -11.246788 -0.000000 -2.846085
LeftHandThumb1 -26.253704 0.000000 33.147579
RightShoulder -20.617211 -10.620381 -22.608483
RightArm -22.186053 49.988888 57.417400
RightForeArm 43.207758 -0.000000 12.054562
RightHand -24.627360 -0.000000 -29.209515
RightHandThumb1 -24.326973 -0.000000 -32.862282
LeftUpLeg -1.850521 11.405938 -0.652214
LeftLeg -0.390446 -0.000000 0.000000
LeftFoot -21.710266 22.518490 -27.274173
LeftToeBase 8.969809 -0.000000 -0.000000
RightUpLeg -5.155662 6.791419 -3.121644
RightLeg -3.102792 -0.000000 0.000000
RightFoot -10.857292 -5.733373 8.462067
RightToeBase 4.629170 -0.000000 -0.000000
3689
root -1.700050 31.874017 -7.002771 8.102249 -12.213939 1.098205
Spine -2.413377 -25.868240 -4.313945
Head 15.113289 39.566367 17.800609
LeftShoulder -17.720685 17.769926 3.192479
LeftArm 27.719321 37.773590 -66.813127
LeftForeArm -0.262775 0.000000 17.135788
LeftHand -11.319145 -0.000000 -2.734642
LeftHandThumb1 -26.253704 0.000000 33.147579
RightShoulder -20.627912 -10.661625 -22.549546
RightArm -21.889284 49.749723 57.911450
RightForeArm 43.389718 -0.000000 11.555064
RightHand -24.713106 -0.000000 -29.026605
RightHandThumb1 -24.326973 -0.000000 -32.862282
LeftUpLeg -1.863735 11.404879 -0.671362
LeftLeg -0.403036 -0.000000 0.000000
LeftFoot -21.687517 22.547254 -27.241114
LeftToeBase 8.935547 -0.000000 -0.000000
RightUpLeg -5.168950 6.826439 -3.145056
RightLeg -3.131739 -0.000000 0.000000
RightFoot -10.842889 -5.742059 8.474412
RightToeBase 4.638414 -0.000000 -0.000000
3690
root -1.695099 31.873777 -7.003077 8.105225 -12.228564 1.113113
Spine -2.418157 -25.842768 -4.272544
Head 15.118451 39.683618 17.685394
LeftShoulder -17.705007 17.758086 3.211612
LeftArm 27.741747 37.765875 -66.846268
LeftForeArm -0.321380 0.000000 17.152752
LeftHand -11.394192 -0.000000 -2.733007
LeftHandThumb1 -26.253704 0.000000 33.147579
RightShoulder -20.665740 -10.668221 -22.509699
RightArm -21.678064 49.631469 58.272810
RightForeArm 43.399410 -0.000000 11.109410
RightHand -24.928092 0.000000 -28.984944
RightHandThumb1 -24.326973 -0.000000 -32.862282
LeftUpLeg -1.867383 11.376534 -0.697354
LeftLeg -0.410601 -0.000000 0.000000
LeftFoot -21.696521 22.590209 -27.240172
LeftToeBase 8.928583 -0.000000 -0.000000
RightUpLeg -5.196222 6.801610 -3.165220
RightLeg -3.093059 -0.000000 0.000000
RightFoot -10.870536 -5.714791 8.459707
RightToeBase 4.643069 -0.000000 -0.000000
3691
root -1.693777 31.873311 -6.999940 8.100567 -12.246307 1.120072
Spine -2.431533 -25.839180 -4.229100
Head 15.154239 39.812269 17.603212
LeftShoulder -17.704815 17.770336 3.224541
LeftArm 27.756756 37.752018 -66.875478
LeftForeArm -0.348469 0.000000 17.181430
LeftHand -11.417995 -0.000000 -2.719492
LeftHandThumb1 -26.253704 0.000000 33.147579
RightShoulder -20.672107 -10.681101 -22.483015
RightArm -21.483301 49.504689 58.590804
RightForeArm 43.604154 -0.000000 10.658499
RightHand -24.599204 0.000000 -28.568542
RightHandThumb1 -24.326973 -0.000000 -32.862282
LeftUpLeg -1.856655 11.392213 -0.711343
LeftLeg -0.413614 -0.000000 0.000000
LeftFoot -21.721826 22.585753 -27.275386
LeftToeBase 8.946359 -0.000000 -0.000000
RightUpLeg -5.190881 6.834719 -3.178666
RightLeg -3.092356 -0.000000 0.000000
RightFoot -10.881750 -5.733475 8.463874
RightToeBase 4.601225 -0.000000 -0.000000
